<svg width="54" height="27" viewBox="0 0 54 27" fill="none" xmlns="http://www.w3.org/2000/svg">
<path d="M4.692 12.12C4.1 12.12 3.552 12.012 3.048 11.796C2.552 11.572 2.12 11.264 1.752 10.872C1.384 10.472 1.1 10.004 0.9 9.468C0.7 8.924 0.6 8.328 0.6 7.68C0.6 7.032 0.7 6.44 0.9 5.904C1.1 5.36 1.38 4.892 1.74 4.5C2.108 4.1 2.54 3.792 3.036 3.576C3.54 3.352 4.088 3.24 4.68 3.24C5.328 3.24 5.908 3.372 6.42 3.636C6.94 3.9 7.364 4.272 7.692 4.752C8.028 5.232 8.236 5.792 8.316 6.432H7.332C7.236 5.72 6.952 5.16 6.48 4.752C6.016 4.336 5.42 4.128 4.692 4.128C4.076 4.128 3.536 4.28 3.072 4.584C2.608 4.88 2.248 5.296 1.992 5.832C1.736 6.36 1.608 6.976 1.608 7.68C1.608 8.384 1.736 9.004 1.992 9.54C2.248 10.068 2.608 10.484 3.072 10.788C3.536 11.084 4.072 11.232 4.68 11.232C5.424 11.232 6.032 11.024 6.504 10.608C6.984 10.192 7.268 9.632 7.356 8.928H8.34C8.26 9.568 8.052 10.128 7.716 10.608C7.388 11.088 6.964 11.46 6.444 11.724C5.932 11.988 5.348 12.12 4.692 12.12ZM9.92653 12V3.36H13.1185C13.7345 3.36 14.2585 3.46 14.6905 3.66C15.1225 3.86 15.4505 4.14 15.6745 4.5C15.9065 4.852 16.0225 5.272 16.0225 5.76C16.0225 6.248 15.9065 6.676 15.6745 7.044C15.4505 7.404 15.1225 7.688 14.6905 7.896C14.2585 8.096 13.7345 8.196 13.1185 8.196H10.6465V7.332H13.0825C13.7225 7.332 14.2065 7.192 14.5345 6.912C14.8705 6.632 15.0385 6.248 15.0385 5.76C15.0385 5.28 14.8745 4.904 14.5465 4.632C14.2185 4.36 13.7305 4.224 13.0825 4.224H10.9105V12H9.92653ZM14.9905 12L10.3945 7.716H11.7385L16.4785 12H14.9905ZM21.3801 12.12C20.7801 12.12 20.2281 12.012 19.7241 11.796C19.2281 11.572 18.7961 11.26 18.4281 10.86C18.0601 10.452 17.7721 9.976 17.5641 9.432C17.3641 8.888 17.2641 8.292 17.2641 7.644C17.2641 6.788 17.4401 6.028 17.7921 5.364C18.1441 4.7 18.6281 4.18 19.2441 3.804C19.8681 3.428 20.5761 3.24 21.3681 3.24C22.1761 3.24 22.8881 3.428 23.5041 3.804C24.1281 4.18 24.6161 4.7 24.9681 5.364C25.3201 6.028 25.4961 6.792 25.4961 7.656C25.4961 8.304 25.3921 8.9 25.1841 9.444C24.9841 9.988 24.7001 10.46 24.3321 10.86C23.9641 11.26 23.5281 11.572 23.0241 11.796C22.5201 12.012 21.9721 12.12 21.3801 12.12ZM21.3681 11.232C21.9841 11.232 22.5241 11.08 22.9881 10.776C23.4601 10.464 23.8281 10.036 24.0921 9.492C24.3561 8.948 24.4881 8.328 24.4881 7.632C24.4881 6.944 24.3561 6.336 24.0921 5.808C23.8361 5.28 23.4721 4.868 23.0001 4.572C22.5361 4.276 21.9921 4.128 21.3681 4.128C20.7441 4.128 20.2001 4.276 19.7361 4.572C19.2721 4.868 18.9121 5.28 18.6561 5.808C18.4001 6.328 18.2721 6.936 18.2721 7.632C18.2721 8.336 18.4001 8.96 18.6561 9.504C18.9201 10.04 19.2841 10.464 19.7481 10.776C20.2121 11.08 20.7521 11.232 21.3681 11.232ZM28.8201 12L26.2641 3.36H27.2721L29.5641 11.34H29.3841L31.6281 3.36H32.8281L35.0841 11.34H34.9041L37.1841 3.36H38.1321L35.5761 12H34.3761L32.1321 4.26H32.2761L30.0201 12H28.8201ZM40.3505 12V11.136H42.6665C43.3865 11.136 44.0065 10.992 44.5265 10.704C45.0465 10.408 45.4465 9.996 45.7265 9.468C46.0065 8.94 46.1465 8.328 46.1465 7.632C46.1465 6.944 46.0065 6.344 45.7265 5.832C45.4465 5.32 45.0465 4.924 44.5265 4.644C44.0145 4.364 43.3945 4.224 42.6665 4.224H40.3505V3.36H42.6665C43.5705 3.36 44.3585 3.54 45.0305 3.9C45.7025 4.252 46.2225 4.752 46.5905 5.4C46.9665 6.04 47.1545 6.792 47.1545 7.656C47.1545 8.52 46.9665 9.28 46.5905 9.936C46.2145 10.584 45.6905 11.092 45.0185 11.46C44.3545 11.82 43.5745 12 42.6785 12H40.3505ZM39.7625 12V3.36H40.7465V12H39.7625Z" fill="black"/>
<path d="M16.9869 4.89434L21.5 2.28868L26.0131 4.89434V10.1057L21.5 12.7113L16.9869 10.1057V4.89434Z" fill="url(#paint0_linear_3_88)" stroke="black" stroke-width="0.5"/>
<path d="M24.032 24V15.36H25.052L30.008 22.632L29.864 22.656V15.36H30.8V24H29.78L24.824 16.728L24.968 16.704V24H24.032ZM32.8679 24V15.36H33.8519V24H32.8679ZM33.3719 24V23.136H38.6519V24H33.3719ZM33.3719 19.932V19.068H38.2199V19.932H33.3719ZM33.3719 16.224V15.36H38.5559V16.224H33.3719ZM42.9327 24.108C41.9247 24.108 41.1207 23.86 40.5207 23.364C39.9287 22.868 39.5807 22.16 39.4767 21.24H40.4367C40.5247 21.904 40.7767 22.404 41.1927 22.74C41.6087 23.076 42.1847 23.244 42.9207 23.244C43.5447 23.244 44.0127 23.128 44.3247 22.896C44.6447 22.656 44.8047 22.308 44.8047 21.852C44.8047 21.46 44.6967 21.148 44.4807 20.916C44.2647 20.684 43.9287 20.492 43.4727 20.34L42.0207 19.836C41.2847 19.58 40.7407 19.272 40.3887 18.912C40.0367 18.544 39.8607 18.08 39.8607 17.52C39.8607 17.056 39.9767 16.656 40.2087 16.32C40.4407 15.976 40.7687 15.708 41.1927 15.516C41.6167 15.324 42.1087 15.228 42.6687 15.228C43.5327 15.228 44.2247 15.456 44.7447 15.912C45.2647 16.36 45.5647 17 45.6447 17.832H44.6847C44.5807 17.232 44.3647 16.792 44.0367 16.512C43.7167 16.232 43.2527 16.092 42.6447 16.092C42.0687 16.092 41.6207 16.208 41.3007 16.44C40.9807 16.672 40.8207 17 40.8207 17.424C40.8207 17.784 40.9327 18.072 41.1567 18.288C41.3807 18.504 41.7287 18.692 42.2007 18.852L43.7487 19.392C44.4207 19.624 44.9247 19.94 45.2607 20.34C45.5967 20.732 45.7647 21.232 45.7647 21.84C45.7647 22.56 45.5167 23.12 45.0207 23.52C44.5327 23.912 43.8367 24.108 42.9327 24.108ZM49.3765 24V16.224H46.4125V15.36H53.3245V16.224H50.3605V24H49.3765Z" fill="black"/>
<defs>
<linearGradient id="paint0_linear_3_88" x1="27" y1="7.5" x2="16" y2="7.5" gradientUnits="userSpaceOnUse">
<stop stop-color="#90CE44"/>
<stop offset="1" stop-color="#2FC93A"/>
</linearGradient>
</defs>
</svg>
